<svg width="68" height="68" viewBox="0 0 68 68" fill="none" xmlns="http://www.w3.org/2000/svg">
<rect width="68" height="68" fill="white"/>
<path d="M1.5 57.7C1.5 58.9817 2.0984 59.946 3.14999 60.5331C3.43873 60.7054 3.69214 60.8041 3.95786 60.8539C4.20404 60.9001 4.44485 60.9001 4.67787 60.9H4.7H4.72213C4.95515 60.9001 5.19596 60.9001 5.44214 60.8539C5.7088 60.8039 5.96306 60.7048 6.25308 60.5312L22.9609 50.9312C23.7947 50.4521 24.7394 50.2 25.701 50.2H63.3C64.2175 50.2 65.0246 49.8825 65.6036 49.3036C66.1825 48.7246 66.5 47.9175 66.5 47V9.7C66.5 7.83651 65.1886 6.5 63.4 6.5H4.7C3.73767 6.5 2.89738 6.84944 2.31487 7.48142C1.78719 8.05391 1.5 8.82724 1.5 9.7V57.7ZM7.8 48.061V15.4C7.8 14.0193 8.91929 12.9 10.3 12.9H57.6C58.9807 12.9 60.1 14.0193 60.1 15.4V41.4C60.1 42.7807 58.9807 43.9 57.6 43.9H23.3C23.0061 43.9 22.6021 43.9702 22.1739 44.1922C22.0085 44.278 21.8551 44.3752 21.7192 44.4625C21.7027 44.4731 21.6864 44.4836 21.6704 44.4939C21.5496 44.5717 21.4432 44.6402 21.3334 44.7022L11.5292 50.2379C9.86261 51.1789 7.8 49.9748 7.8 48.061Z" fill="#F49905" stroke="#F49905"/>
<path d="M18 34C20.9271 34 23.3 31.6271 23.3 28.7C23.3 25.7729 20.9271 23.4 18 23.4C15.0729 23.4 12.7 25.7729 12.7 28.7C12.7 31.6271 15.0729 34 18 34Z" fill="#F49905"/>
<path d="M34 34C36.9271 34 39.3 31.6271 39.3 28.7C39.3 25.7729 36.9271 23.4 34 23.4C31.0729 23.4 28.7 25.7729 28.7 28.7C28.7 31.6271 31.0729 34 34 34Z" fill="#F49905"/>
<path d="M50 34C52.9271 34 55.3 31.6271 55.3 28.7C55.3 25.7729 52.9271 23.4 50 23.4C47.0729 23.4 44.7 25.7729 44.7 28.7C44.7 31.6271 47.0729 34 50 34Z" fill="#F49905"/>
</svg>
