<svg width="64" height="64" viewBox="0 0 64 64" fill="none" xmlns="http://www.w3.org/2000/svg">
<rect width="64" height="64" fill="white"/>
<path d="M2.7 58.7C2.2 58.7 1.9 58.7 1.4 58.4C0.5 57.9 0 57.1 0 56V7.99999C0 6.39999 1.1 5.29999 2.7 5.29999H61.4C62.9 5.29999 64 6.39999 64 7.99999V45.3C64 46.9 62.9 48 61.3 48H22.1L4 58.4C3.5 58.7 3.2 58.7 2.7 58.7ZM5.3 10.7V51.5L20 43.2C20.5 42.7 20.8 42.7 21.3 42.7H58.6V10.7H5.3V10.7Z" fill="#F49905"/>
<path d="M16 32C18.9271 32 21.3 29.6271 21.3 26.7C21.3 23.7729 18.9271 21.4 16 21.4C13.0729 21.4 10.7 23.7729 10.7 26.7C10.7 29.6271 13.0729 32 16 32Z" fill="#F49905"/>
<path d="M32 32C34.9271 32 37.3 29.6271 37.3 26.7C37.3 23.7729 34.9271 21.4 32 21.4C29.0729 21.4 26.7 23.7729 26.7 26.7C26.7 29.6271 29.0729 32 32 32Z" fill="#F49905"/>
<path d="M48 32C50.9271 32 53.3 29.6271 53.3 26.7C53.3 23.7729 50.9271 21.4 48 21.4C45.0729 21.4 42.7 23.7729 42.7 26.7C42.7 29.6271 45.0729 32 48 32Z" fill="#F49905"/>
</svg>
