<svg width="68" height="68" viewBox="0 0 68 68" fill="none" xmlns="http://www.w3.org/2000/svg">
<rect width="68" height="68" fill="white"/>
<mask id="path-2-outside-1" maskUnits="userSpaceOnUse" x="1" y="6" width="66" height="56" fill="black">
<rect fill="white" x="1" y="6" width="66" height="56"/>
<path fill-rule="evenodd" clip-rule="evenodd" d="M2 13C2 9.68629 4.68629 7 8 7H60C63.3137 7 66 9.68629 66 13V32V36V55C66 58.3137 63.3137 61 60 61H8C4.68629 61 2 58.3137 2 55V36V32V13ZM7 14C7 12.8954 7.89543 12 9 12H58C59.1046 12 60 12.8954 60 14V29C60 30.1046 59.1046 31 58 31H9C7.89543 31 7 30.1046 7 29V14ZM7 39C7 37.8954 7.89543 37 9 37H58C59.1046 37 60 37.8954 60 39V54C60 55.1046 59.1046 56 58 56H9C7.89543 56 7 55.1046 7 54V39Z"/>
</mask>
<path fill-rule="evenodd" clip-rule="evenodd" d="M2 13C2 9.68629 4.68629 7 8 7H60C63.3137 7 66 9.68629 66 13V32V36V55C66 58.3137 63.3137 61 60 61H8C4.68629 61 2 58.3137 2 55V36V32V13ZM7 14C7 12.8954 7.89543 12 9 12H58C59.1046 12 60 12.8954 60 14V29C60 30.1046 59.1046 31 58 31H9C7.89543 31 7 30.1046 7 29V14ZM7 39C7 37.8954 7.89543 37 9 37H58C59.1046 37 60 37.8954 60 39V54C60 55.1046 59.1046 56 58 56H9C7.89543 56 7 55.1046 7 54V39Z" fill="#F49905"/>
<path d="M8 6C4.13401 6 1 9.13401 1 13H3C3 10.2386 5.23858 8 8 8V6ZM60 6H8V8H60V6ZM67 13C67 9.13401 63.866 6 60 6V8C62.7614 8 65 10.2386 65 13H67ZM67 32V13H65V32H67ZM67 36V32H65V36H67ZM67 55V36H65V55H67ZM60 62C63.866 62 67 58.866 67 55H65C65 57.7614 62.7614 60 60 60V62ZM8 62H60V60H8V62ZM1 55C1 58.866 4.13401 62 8 62V60C5.23858 60 3 57.7614 3 55H1ZM1 36V55H3V36H1ZM1 32V36H3V32H1ZM1 13V32H3V13H1ZM9 11C7.34315 11 6 12.3431 6 14H8C8 13.4477 8.44772 13 9 13V11ZM58 11H9V13H58V11ZM61 14C61 12.3431 59.6569 11 58 11V13C58.5523 13 59 13.4477 59 14H61ZM61 29V14H59V29H61ZM58 32C59.6569 32 61 30.6569 61 29H59C59 29.5523 58.5523 30 58 30V32ZM9 32H58V30H9V32ZM6 29C6 30.6569 7.34314 32 9 32V30C8.44771 30 8 29.5523 8 29H6ZM6 14V29H8V14H6ZM9 36C7.34315 36 6 37.3431 6 39H8C8 38.4477 8.44772 38 9 38V36ZM58 36H9V38H58V36ZM61 39C61 37.3431 59.6569 36 58 36V38C58.5523 38 59 38.4477 59 39H61ZM61 54V39H59V54H61ZM58 57C59.6569 57 61 55.6569 61 54H59C59 54.5523 58.5523 55 58 55V57ZM9 57H58V55H9V57ZM6 54C6 55.6569 7.34314 57 9 57V55C8.44772 55 8 54.5523 8 54H6ZM6 39V54H8V39H6Z" fill="#F49905" mask="url(#path-2-outside-1)"/>
<rect x="11" y="16" width="13" height="6" rx="2" fill="#F49905"/>
<rect x="27" y="16" width="13" height="6" rx="2" fill="#F49905"/>
<rect x="43" y="16" width="13" height="6" rx="2" fill="#F49905"/>
</svg>
